<svg xmlns="http://www.w3.org/2000/svg" viewBox="0 0 32 32" role="img" aria-label="RetroWeb">
  <rect width="32" height="32" rx="8" fill="#141520"/>
  <rect x="0.6" y="0.6" width="30.8" height="30.8" rx="7.4" fill="none" stroke="#ff3e7f" stroke-opacity="0.35"/>
  <g fill="#ff3e7f">
    <rect x="9" y="8" width="2" height="2"/><rect x="21" y="8" width="2" height="2"/>
    <rect x="11" y="10" width="2" height="2"/><rect x="19" y="10" width="2" height="2"/>
    <rect x="9" y="12" width="14" height="2"/>
    <rect x="7" y="14" width="4" height="2"/><rect x="13" y="14" width="6" height="2"/><rect x="21" y="14" width="4" height="2"/>
    <rect x="5" y="16" width="22" height="2"/>
    <rect x="5" y="18" width="2" height="2"/><rect x="9" y="18" width="14" height="2"/><rect x="25" y="18" width="2" height="2"/>
    <rect x="5" y="20" width="2" height="2"/><rect x="9" y="20" width="2" height="2"/><rect x="21" y="20" width="2" height="2"/><rect x="25" y="20" width="2" height="2"/>
    <rect x="11" y="22" width="4" height="2"/><rect x="17" y="22" width="4" height="2"/>
  </g>
</svg>
